<svg width="1000" xmlns="http://www.w3.org/2000/svg" height="1000" id="screenshot-4e290ee5-64c5-80e0-8007-83e6a41f7282" viewBox="0 0 1000 1000" xmlns:xlink="http://www.w3.org/1999/xlink" fill="none" version="1.1"><g id="shape-4e290ee5-64c5-80e0-8007-83e6a41f7282"><defs><clipPath id="frame-clip-4e290ee5-64c5-80e0-8007-83e6a41f7282-render-1" class="frame-clip frame-clip-def"><rect rx="64" ry="64" x="0" y="0" width="1000" height="1000" transform="matrix(1.000000, 0.000000, 0.000000, 1.000000, 0.000000, 0.000000)"/></clipPath></defs><g class="frame-container-wrapper"><g class="frame-container-blur"><g class="frame-container-shadows"><g clip-path="url(#frame-clip-4e290ee5-64c5-80e0-8007-83e6a41f7282-render-1)" fill="none"><g class="fills" id="fills-4e290ee5-64c5-80e0-8007-83e6a41f7282"><rect width="1000" height="1000" class="frame-background" x="0" transform="matrix(1.000000, 0.000000, 0.000000, 1.000000, 0.000000, 0.000000)" style="fill: rgb(255, 111, 97); fill-opacity: 1;" ry="64" rx="64" y="0"/></g><g class="frame-children"><g id="shape-c2909b90-ee99-80a4-8007-845bdbe9bc32" rx="0" ry="0"><g id="shape-4e290ee5-64c5-80e0-8007-83e76b19367d"><g class="fills" id="fills-4e290ee5-64c5-80e0-8007-83e76b19367d"><rect rx="0" ry="0" x="100.00000000000006" y="100" transform="matrix(1.000000, 0.000000, 0.000000, 1.000000, 0.000000, 0.000000)" width="800.0000000000005" height="375" style="fill: rgb(255, 235, 59); fill-opacity: 1;"/></g></g><g id="shape-c2909b90-ee99-80a4-8007-845c7441fc35"><g class="fills" id="fills-c2909b90-ee99-80a4-8007-845c7441fc35"><path d="M367.19622802734375,239.2119140625L367.19622802734375,239.2119140625C367.35626220703125,244.971923828125,366.7962646484375,250.5718994140625,365.5162353515625,256.011962890625C364.23626708984375,261.45196533203125,362.47625732421875,266.81195068359375,360.23626708984375,272.0919189453125L360.23626708984375,272.0919189453125C356.55621337890625,281.05194091796875,351.63629150390625,289.0919189453125,345.47625732421875,296.2119140625C339.31622314453125,303.33197021484375,332.396240234375,309.77197265625,324.71624755859375,315.53192138671875L324.71624755859375,315.53192138671875C320.55621337890625,318.57196044921875,316.35626220703125,321.3719482421875,312.11627197265625,323.93194580078125C307.87628173828125,326.491943359375,303.43621826171875,328.65191650390625,298.7962646484375,330.41192626953125L298.7962646484375,330.41192626953125C297.35626220703125,330.8919677734375,296.63629150390625,332.0919189453125,296.63629150390625,334.011962890625L296.63629150390625,334.011962890625C296.63629150390625,339.1319580078125,296.59625244140625,343.29193115234375,296.5162353515625,346.491943359375C296.43621826171875,349.69195556640625,296.35626220703125,352.8919677734375,296.2762451171875,356.0919189453125C296.19622802734375,359.29193115234375,296.15625,363.45196533203125,296.15625,368.57196044921875L296.15625,368.57196044921875C296.47625732421875,370.011962890625,296.75628662109375,371.45196533203125,296.99627685546875,372.8919677734375C297.23626708984375,374.3319091796875,297.19622802734375,375.77191162109375,296.87628173828125,377.2119140625L296.87628173828125,377.2119140625C296.87628173828125,382.3319091796875,294.95623779296875,385.05194091796875,291.11627197265625,385.3719482421875L291.11627197265625,385.3719482421875C289.35626220703125,385.53192138671875,287.63629150390625,385.011962890625,285.95623779296875,383.81195068359375C284.2762451171875,382.6119384765625,283.11627197265625,380.971923828125,282.47625732421875,378.89190673828125L282.47625732421875,378.89190673828125C281.67626953125,376.011962890625,280.95623779296875,373.0919189453125,280.31622314453125,370.1319580078125C279.67626953125,367.17193603515625,279.11627197265625,364.251953125,278.63629150390625,361.3719482421875L278.63629150390625,361.3719482421875C277.99627685546875,357.53192138671875,277.47625732421875,354.73193359375,277.07623291015625,352.971923828125C276.67626953125,351.2119140625,276.31622314453125,349.41192626953125,275.99627685546875,347.57196044921875C275.67626953125,345.73193359375,275.35626220703125,342.971923828125,275.0362548828125,339.29193115234375L275.0362548828125,339.29193115234375L275.0362548828125,336.41192626953125C275.19622802734375,334.81195068359375,275.15625,333.33197021484375,274.916259765625,331.971923828125C274.67626953125,330.6119384765625,273.99627685546875,329.2119140625,272.87628173828125,327.77191162109375L272.87628173828125,327.77191162109375C269.35626220703125,324.0919189453125,269.67626953125,320.65191650390625,273.83624267578125,317.45196533203125L273.83624267578125,317.45196533203125C274.63623046875,316.81195068359375,275.07623291015625,316.251953125,275.15625,315.77197265625C275.23626708984375,315.29193115234375,275.2762451171875,314.73193359375,275.2762451171875,314.0919189453125L275.2762451171875,314.0919189453125C275.75628662109375,304.65191650390625,275.99627685546875,295.45196533203125,275.99627685546875,286.491943359375L275.99627685546875,286.491943359375C276.31622314453125,279.45196533203125,276.63623046875,272.45196533203125,276.95623779296875,265.491943359375C277.2762451171875,258.53192138671875,277.59625244140625,251.6119384765625,277.916259765625,244.73193359375L277.916259765625,244.73193359375C278.07623291015625,240.0919189453125,278.55621337890625,235.5718994140625,279.35626220703125,231.17193603515625C280.15625,226.77191162109375,280.87628173828125,222.41192626953125,281.5162353515625,218.0919189453125L281.5162353515625,218.0919189453125C281.67626953125,217.451904296875,281.83624267578125,216.89190673828125,281.99627685546875,216.41192626953125C282.15625,215.931884765625,282.07623291015625,215.37188720703125,281.75628662109375,214.73193359375L281.75628662109375,214.73193359375C281.43621826171875,211.8519287109375,281.95623779296875,209.37188720703125,283.31622314453125,207.29193115234375C284.67626953125,205.21194458007812,286.31622314453125,203.37191772460938,288.23626708984375,201.77194213867188L288.23626708984375,201.77194213867188C296.07623291015625,195.37191772460938,305.11627197265625,191.45193481445312,315.35626220703125,190.01193237304688L315.35626220703125,190.01193237304688C318.55621337890625,189.37191772460938,321.71624755859375,189.29193115234375,324.83624267578125,189.77194213867188C327.95623779296875,190.25192260742188,331.0362548828125,191.13192749023438,334.07623291015625,192.41192626953125L334.07623291015625,192.41192626953125C352.47625732421875,198.81192016601562,363.5162353515625,211.77191162109375,367.19622802734375,231.29193115234375L367.19622802734375,231.29193115234375C367.35626220703125,232.5718994140625,367.396240234375,233.8519287109375,367.31622314453125,235.13189697265625C367.23626708984375,236.41192626953125,367.19622802734375,237.77191162109375,367.19622802734375,239.2119140625ZM298.7962646484375,257.69195556640625L298.7962646484375,257.69195556640625C298.47625732421875,265.05194091796875,298.19622802734375,271.3719482421875,297.95623779296875,276.65191650390625C297.71624755859375,281.93194580078125,297.5162353515625,286.971923828125,297.35626220703125,291.77197265625L297.35626220703125,291.77197265625C297.35626220703125,294.17193603515625,297.35626220703125,296.491943359375,297.35626220703125,298.73193359375C297.35626220703125,300.971923828125,297.19622802734375,303.2119140625,296.87628173828125,305.45196533203125L296.87628173828125,305.45196533203125C296.87628173828125,305.77197265625,296.916259765625,306.2119140625,296.99627685546875,306.77197265625C297.07623291015625,307.33197021484375,297.2762451171875,307.77197265625,297.59625244140625,308.0919189453125L297.59625244140625,308.0919189453125C298.23626708984375,308.251953125,298.75628662109375,308.17193603515625,299.15625,307.8519287109375C299.55621337890625,307.53192138671875,299.916259765625,307.2119140625,300.23626708984375,306.8919677734375L300.23626708984375,306.8919677734375C302.47625732421875,305.29193115234375,304.67626953125,303.69195556640625,306.83624267578125,302.0919189453125C308.99627685546875,300.491943359375,311.11627197265625,298.8919677734375,313.19622802734375,297.29193115234375L313.19622802734375,297.29193115234375C316.87628173828125,294.73193359375,320.23626708984375,291.8919677734375,323.2762451171875,288.77197265625C326.31622314453125,285.65191650390625,329.19622802734375,282.33197021484375,331.916259765625,278.81195068359375L331.916259765625,278.81195068359375C334.95623779296875,274.81195068359375,337.5162353515625,270.491943359375,339.59625244140625,265.8519287109375C341.67626953125,261.2119140625,343.2762451171875,256.41192626953125,344.396240234375,251.451904296875L344.396240234375,251.451904296875C345.67626953125,247.6119384765625,346.31622314453125,243.931884765625,346.31622314453125,240.41192626953125L346.31622314453125,240.41192626953125C346.31622314453125,238.17193603515625,346.15625,236.0518798828125,345.83624267578125,234.0518798828125C345.5162353515625,232.0518798828125,344.95623779296875,230.0919189453125,344.15625,228.17193603515625L344.15625,228.17193603515625C341.916259765625,222.89190673828125,338.55621337890625,218.77191162109375,334.07623291015625,215.8118896484375C329.59625244140625,212.8519287109375,324.55621337890625,211.29193115234375,318.95623779296875,211.13189697265625C313.35626220703125,210.971923828125,307.67626953125,212.65191650390625,301.916259765625,216.17193603515625L301.916259765625,216.17193603515625C300.31622314453125,217.29193115234375,299.59625244140625,218.73193359375,299.75628662109375,220.49188232421875L299.75628662109375,220.49188232421875L299.75628662109375,226.971923828125C300.07623291015625,232.89190673828125,300.0362548828125,238.6119384765625,299.63629150390625,244.13189697265625C299.23626708984375,249.65191650390625,298.95623779296875,254.17193603515625,298.7962646484375,257.69195556640625ZM377.99627685546875,298.251953125L377.99627685546875,294.41192626953125C377.99627685546875,287.53192138671875,378.396240234375,280.69195556640625,379.19622802734375,273.8919677734375C379.99627685546875,267.0919189453125,381.0362548828125,260.33197021484375,382.31622314453125,253.6119384765625L382.31622314453125,253.6119384765625C383.59625244140625,247.3719482421875,385.15625,241.2119140625,386.99627685546875,235.13189697265625C388.83624267578125,229.0518798828125,391.11627197265625,223.13189697265625,393.83624267578125,217.37188720703125L393.83624267578125,217.37188720703125C395.11627197265625,214.65191650390625,396.5162353515625,212.13189697265625,398.0362548828125,209.8118896484375C399.5562744140625,207.49188232421875,401.35626220703125,205.29193115234375,403.43621826171875,203.21194458007812L403.43621826171875,203.21194458007812C404.87628173828125,201.77194213867188,406.5562744140625,200.49191284179688,408.47625732421875,199.37191772460938L408.47625732421875,199.37191772460938C410.23626708984375,198.73193359375,411.71624755859375,197.89193725585938,412.916259765625,196.8519287109375C414.11627197265625,195.81192016601562,415.2762451171875,194.73193359375,416.396240234375,193.6119384765625L416.396240234375,193.6119384765625C420.07623291015625,190.41192626953125,423.916259765625,189.45193481445312,427.916259765625,190.73193359375L427.916259765625,190.73193359375C437.19622802734375,192.49191284179688,444.396240234375,197.05191040039062,449.5162353515625,204.41192626953125L449.5162353515625,204.41192626953125C452.07623291015625,207.931884765625,454.31622314453125,211.65191650390625,456.23626708984375,215.5718994140625C458.15625,219.49188232421875,459.916259765625,223.451904296875,461.5162353515625,227.451904296875L461.5162353515625,227.451904296875C466.31622314453125,239.77191162109375,469.87628173828125,252.3719482421875,472.19622802734375,265.251953125C474.5162353515625,278.1319580078125,475.2762451171875,291.2119140625,474.47625732421875,304.491943359375L474.47625732421875,304.491943359375C473.83624267578125,311.8519287109375,472.87628173828125,319.17193603515625,471.59625244140625,326.45196533203125C470.31622314453125,333.73193359375,468.396240234375,340.81195068359375,465.83624267578125,347.69195556640625L465.83624267578125,347.69195556640625C464.07623291015625,353.1319580078125,461.71624755859375,358.1319580078125,458.75628662109375,362.69195556640625C455.7962646484375,367.251953125,452.15625,371.3719482421875,447.83624267578125,375.05194091796875L447.83624267578125,375.05194091796875C442.5562744140625,379.3719482421875,436.99627685546875,382.45196533203125,431.15625,384.29193115234375C425.31622314453125,386.1319580078125,419.11627197265625,385.93194580078125,412.5562744140625,383.69195556640625L412.5562744140625,383.69195556640625C409.0362548828125,382.57196044921875,405.87628173828125,380.81195068359375,403.07623291015625,378.41192626953125C400.2762451171875,376.011962890625,397.75628662109375,373.29193115234375,395.5162353515625,370.251953125L395.5162353515625,370.251953125C392.47625732421875,366.0919189453125,390.0362548828125,361.73193359375,388.19622802734375,357.17193603515625C386.35626220703125,352.6119384765625,384.71624755859375,347.8519287109375,383.2762451171875,342.8919677734375L383.2762451171875,342.8919677734375C381.35626220703125,335.69195556640625,379.99627685546875,328.33197021484375,379.19622802734375,320.81195068359375C378.396240234375,313.29193115234375,377.99627685546875,305.77197265625,377.99627685546875,298.251953125L377.99627685546875,298.251953125ZM420.71624755859375,214.49188232421875L420.71624755859375,214.49188232421875C419.916259765625,214.8118896484375,419.35626220703125,215.29193115234375,419.0362548828125,215.931884765625C418.71624755859375,216.5718994140625,418.47625732421875,217.13189697265625,418.31622314453125,217.6119384765625L418.31622314453125,217.6119384765625C417.35626220703125,219.69189453125,416.47625732421875,221.65191650390625,415.67626953125,223.49188232421875C414.87628173828125,225.3319091796875,414.07623291015625,227.2119140625,413.2762451171875,229.13189697265625L413.2762451171875,229.13189697265625C409.11627197265625,239.0518798828125,406.0362548828125,249.2119140625,404.0362548828125,259.6119384765625C402.0362548828125,270.011962890625,400.87628173828125,280.491943359375,400.5562744140625,291.05194091796875L400.5562744140625,291.05194091796875C400.396240234375,296.011962890625,400.43621826171875,300.8919677734375,400.67626953125,305.69195556640625C400.916259765625,310.491943359375,401.35626220703125,315.45196533203125,401.99627685546875,320.57196044921875L401.99627685546875,320.57196044921875C402.63623046875,325.2119140625,403.5162353515625,329.8519287109375,404.63623046875,334.491943359375C405.75628662109375,339.1319580078125,407.19622802734375,343.6119384765625,408.95623779296875,347.93194580078125L408.95623779296875,347.93194580078125C409.75628662109375,349.69195556640625,410.59625244140625,351.45196533203125,411.47625732421875,353.2119140625C412.35626220703125,354.971923828125,413.43621826171875,356.57196044921875,414.71624755859375,358.011962890625L414.71624755859375,358.011962890625C419.99627685546875,364.57196044921875,426.07623291015625,365.77191162109375,432.95623779296875,361.6119384765625L432.95623779296875,361.6119384765625C436.15625,359.8519287109375,438.83624267578125,357.6119384765625,440.99627685546875,354.8919677734375C443.15625,352.17193603515625,444.95623779296875,349.29193115234375,446.396240234375,346.251953125L446.396240234375,346.251953125C447.83624267578125,342.73193359375,449.11627197265625,339.251953125,450.23626708984375,335.81195068359375C451.35626220703125,332.3719482421875,452.23626708984375,328.8919677734375,452.87628173828125,325.3719482421875L452.87628173828125,325.3719482421875C454.15625,318.65191650390625,454.7962646484375,311.971923828125,454.7962646484375,305.33197021484375C454.7962646484375,298.69195556640625,454.396240234375,291.93194580078125,453.59625244140625,285.05194091796875L453.59625244140625,285.05194091796875C452.95623779296875,280.0919189453125,452.0362548828125,275.251953125,450.83624267578125,270.53192138671875C449.63623046875,265.81195068359375,448.396240234375,261.1319580078125,447.11627197265625,256.491943359375L447.11627197265625,256.491943359375C445.67626953125,251.3719482421875,444.11627197265625,246.41192626953125,442.43621826171875,241.6119384765625C440.75628662109375,236.8118896484375,438.7962646484375,232.0919189453125,436.5562744140625,227.451904296875L436.5562744140625,227.451904296875C435.75628662109375,225.2119140625,434.75628662109375,223.0518798828125,433.5562744140625,220.971923828125C432.35626220703125,218.89190673828125,430.87628173828125,217.0518798828125,429.11627197265625,215.451904296875L429.11627197265625,215.451904296875C428.15625,214.49188232421875,427.43621826171875,214.25189208984375,426.95623779296875,214.73193359375L426.95623779296875,214.73193359375C425.67626953125,216.01190185546875,424.5562744140625,216.41192626953125,423.59625244140625,215.931884765625C422.63623046875,215.451904296875,421.67626953125,214.971923828125,420.71624755859375,214.49188232421875ZM512.396240234375,252.65191650390625L512.396240234375,252.65191650390625C512.5562744140625,271.8519287109375,520.5562133789062,286.73193359375,536.396240234375,297.29193115234375L536.396240234375,297.29193115234375C540.2362670898438,299.8519287109375,544.2762451171875,302.0919189453125,548.5162963867188,304.011962890625C552.7562866210938,305.93194580078125,556.8762817382812,307.77197265625,560.8762817382812,309.53192138671875L560.8762817382812,309.53192138671875C564.8762817382812,311.1319580078125,568.8762817382812,312.93194580078125,572.876220703125,314.93194580078125C576.876220703125,316.93194580078125,580.55615234375,319.29193115234375,583.916259765625,322.011962890625L583.916259765625,322.011962890625C585.6761474609375,323.29193115234375,587.276123046875,324.73193359375,588.7161865234375,326.33197021484375C590.15625,327.93194580078125,591.356201171875,329.77191162109375,592.316162109375,331.8519287109375L592.316162109375,331.8519287109375C594.076171875,335.8519287109375,594.7562255859375,339.69195556640625,594.356201171875,343.3719482421875C593.9561767578125,347.05194091796875,592.63623046875,350.73193359375,590.396240234375,354.41192626953125L590.396240234375,354.41192626953125C588.4761962890625,357.93194580078125,586.0361328125,361.05194091796875,583.076171875,363.77191162109375C580.1162109375,366.491943359375,576.9561767578125,369.05194091796875,573.59619140625,371.45196533203125L573.59619140625,371.45196533203125C569.1162719726562,374.3319091796875,564.4362182617188,376.73193359375,559.5562133789062,378.65191650390625C554.6762084960938,380.57196044921875,549.5162963867188,381.6119384765625,544.0762329101562,381.77191162109375L544.0762329101562,381.77191162109375C538.7962646484375,382.251953125,533.8362426757812,381.45196533203125,529.1962280273438,379.3719482421875L529.1962280273438,379.3719482421875C525.1962280273438,377.1319580078125,522.5162963867188,374.0919189453125,521.15625,370.251953125C519.7962646484375,366.41192626953125,519.9962768554688,362.491943359375,521.7562866210938,358.491943359375L521.7562866210938,358.491943359375C522.5562133789062,356.41192626953125,523.6762084960938,354.57196044921875,525.1162719726562,352.971923828125C526.5562133789062,351.3719482421875,528.0762329101562,349.8519287109375,529.6762084960938,348.41192626953125L529.6762084960938,348.41192626953125C532.7162475585938,345.69195556640625,535.3562622070312,345.45196533203125,537.5962524414062,347.69195556640625L537.5962524414062,347.69195556640625C539.9962768554688,349.45196533203125,540.4762573242188,352.0919189453125,539.0362548828125,355.6119384765625L539.0362548828125,355.6119384765625C538.8762817382812,356.0919189453125,538.5962524414062,356.65191650390625,538.1962280273438,357.29193115234375C537.7962646484375,357.93194580078125,537.4362182617188,358.57196044921875,537.1162719726562,359.2119140625L537.1162719726562,359.2119140625C536.6362915039062,360.33197021484375,536.5162963867188,361.0919189453125,536.7562866210938,361.491943359375C536.9962768554688,361.8919677734375,537.7562866210938,362.0919189453125,539.0362548828125,362.0919189453125L539.0362548828125,362.0919189453125C543.9962768554688,362.251953125,548.6362915039062,361.53192138671875,552.9562377929688,359.93194580078125L552.9562377929688,359.93194580078125C556.4762573242188,358.491943359375,559.7962036132812,356.81195068359375,562.9163208007812,354.8919677734375C566.0361938476562,352.971923828125,568.8762817382812,350.57196044921875,571.4361572265625,347.69195556640625L571.4361572265625,347.69195556640625C573.6761474609375,344.971923828125,574.7562255859375,342.8519287109375,574.6761474609375,341.33197021484375C574.59619140625,339.81195068359375,573.0361328125,338.0919189453125,569.9962768554688,336.17193603515625L569.9962768554688,336.17193603515625C567.2761840820312,334.0919189453125,564.3562622070312,332.3719482421875,561.2362670898438,331.011962890625C558.1162719726562,329.65191650390625,555.0361938476562,328.251953125,551.9962768554688,326.81195068359375L551.9962768554688,326.81195068359375C547.3562622070312,324.73193359375,542.7162475585938,322.65191650390625,538.0762329101562,320.57196044921875C533.4362182617188,318.491943359375,529.0362548828125,316.011962890625,524.8762817382812,313.1319580078125L524.8762817382812,313.1319580078125C519.4362182617188,309.45196533203125,514.5562744140625,305.251953125,510.23626708984375,300.53192138671875C505.916259765625,295.81195068359375,502.31622314453125,290.41192626953125,499.43621826171875,284.33197021484375L499.43621826171875,284.33197021484375C495.916259765625,276.65191650390625,493.75628662109375,268.33197021484375,492.95623779296875,259.3719482421875L492.95623779296875,259.3719482421875C492.63623046875,253.13189697265625,492.87628173828125,246.89190673828125,493.67626953125,240.65191650390625C494.47625732421875,234.41192626953125,496.15625,228.3319091796875,498.71624755859375,222.41192626953125L498.71624755859375,222.41192626953125C500.95623779296875,216.65191650390625,503.916259765625,211.41192626953125,507.59625244140625,206.69189453125C511.2762451171875,201.97195434570312,515.8362426757812,198.09194946289062,521.2762451171875,195.05191040039062L521.2762451171875,195.05191040039062C527.3562622070312,191.37191772460938,534.15625,189.53195190429688,541.6762084960938,189.53195190429688C549.1962280273438,189.53195190429688,556.5562133789062,193.05191040039062,563.7562866210938,200.09194946289062L563.7562866210938,200.09194946289062C569.8362426757812,205.53195190429688,574.7562255859375,211.65191650390625,578.5162353515625,218.451904296875C582.276123046875,225.25189208984375,585.1961669921875,232.5718994140625,587.276123046875,240.41192626953125L587.276123046875,240.41192626953125C587.7562255859375,242.3319091796875,588.0361328125,244.3319091796875,588.1162109375,246.41192626953125C588.1961669921875,248.491943359375,588.15625,250.65191650390625,587.9962158203125,252.89190673828125L587.9962158203125,252.89190673828125C587.836181640625,254.17193603515625,587.4361572265625,255.3719482421875,586.796142578125,256.491943359375C586.15625,257.6119384765625,585.1961669921875,258.491943359375,583.916259765625,259.1319580078125L583.916259765625,259.1319580078125C581.356201171875,259.93194580078125,578.876220703125,259.2119140625,576.4761962890625,256.971923828125L576.4761962890625,256.971923828125C575.836181640625,256.33197021484375,575.276123046875,255.6119384765625,574.796142578125,254.81195068359375C574.316162109375,254.01190185546875,573.916259765625,253.29193115234375,573.59619140625,252.65191650390625L573.59619140625,252.65191650390625C572.316162109375,250.5718994140625,571.1961669921875,248.41192626953125,570.2362670898438,246.17193603515625C569.2761840820312,243.931884765625,568.2362670898438,241.77191162109375,567.1162719726562,239.69189453125L567.1162719726562,239.69189453125C565.5162963867188,236.01190185546875,563.7562866210938,232.41192626953125,561.8362426757812,228.89190673828125C559.9163208007812,225.37188720703125,557.6762084960938,222.0919189453125,555.1162719726562,219.0518798828125L555.1162719726562,219.0518798828125C553.9962768554688,217.77191162109375,552.8762817382812,216.53192138671875,551.7562866210938,215.3319091796875C550.6362915039062,214.13189697265625,549.3562622070312,213.13189697265625,547.916259765625,212.3319091796875L547.916259765625,212.3319091796875C543.4362182617188,208.65191650390625,538.396240234375,208.17193603515625,532.7962646484375,210.89190673828125L532.7962646484375,210.89190673828125C530.8762817382812,212.01190185546875,529.0362548828125,213.29193115234375,527.2762451171875,214.73193359375C525.5162963867188,216.17193603515625,523.9962768554688,217.8519287109375,522.7162475585938,219.77191162109375L522.7162475585938,219.77191162109375C519.8362426757812,223.29193115234375,517.6362915039062,227.17193603515625,516.1162719726562,231.41192626953125C514.5962524414062,235.65191650390625,513.5962524414062,240.0919189453125,513.1162719726562,244.73193359375L513.1162719726562,244.73193359375C512.9562377929688,246.17193603515625,512.7562866210938,247.5718994140625,512.5162353515625,248.93194580078125C512.2762451171875,250.29193115234375,512.2362670898438,251.53192138671875,512.396240234375,252.65191650390625ZM665.276123046875,234.17193603515625L665.276123046875,253.6119384765625C665.916259765625,260.81195068359375,666.356201171875,268.011962890625,666.59619140625,275.2119140625C666.836181640625,282.41192626953125,667.276123046875,289.6119384765625,667.916259765625,296.81195068359375L667.916259765625,296.81195068359375C668.2362060546875,301.45196533203125,668.5162353515625,306.0919189453125,668.7562255859375,310.73193359375C668.9962158203125,315.3719482421875,669.276123046875,320.011962890625,669.59619140625,324.65191650390625L669.59619140625,324.65191650390625C669.916259765625,331.53192138671875,670.276123046875,338.29193115234375,670.6761474609375,344.93194580078125C671.076171875,351.57196044921875,671.59619140625,358.251953125,672.2362060546875,364.971923828125L672.2362060546875,364.971923828125C672.396240234375,366.0919189453125,672.63623046875,367.251953125,672.9561767578125,368.45196533203125C673.276123046875,369.65191650390625,673.5162353515625,370.8919677734375,673.6761474609375,372.17193603515625L673.6761474609375,372.17193603515625C673.836181640625,373.29193115234375,673.6761474609375,374.491943359375,673.1961669921875,375.77191162109375C672.7161865234375,377.05194091796875,671.916259765625,378.0919189453125,670.796142578125,378.89190673828125L670.796142578125,378.89190673828125C668.396240234375,380.491943359375,665.836181640625,380.251953125,663.1162109375,378.17193603515625L663.1162109375,378.17193603515625C661.0361328125,376.57196044921875,659.5162353515625,374.3319091796875,658.55615234375,371.45196533203125L658.55615234375,371.45196533203125C657.1162109375,368.251953125,655.9962158203125,364.8519287109375,655.1961669921875,361.251953125C654.396240234375,357.65191650390625,653.6761474609375,354.0919189453125,653.0361328125,350.57196044921875L653.0361328125,350.57196044921875C651.4361572265625,340.491943359375,650.15625,330.33197021484375,649.1961669921875,320.0919189453125C648.2362060546875,309.8519287109375,647.5162353515625,299.6119384765625,647.0361328125,289.3719482421875L647.0361328125,289.3719482421875C646.876220703125,285.69195556640625,646.63623046875,281.971923828125,646.316162109375,278.2119140625C645.9962158203125,274.45196533203125,645.7562255859375,270.81195068359375,645.59619140625,267.29193115234375L645.59619140625,267.29193115234375C645.1162109375,254.81195068359375,644.876220703125,242.3319091796875,644.876220703125,229.8519287109375L644.876220703125,229.8519287109375C644.876220703125,227.13189697265625,644.9561767578125,224.451904296875,645.1162109375,221.8118896484375C645.276123046875,219.17193603515625,645.5162353515625,216.5718994140625,645.836181640625,214.01190185546875L645.836181640625,214.01190185546875C646.15625,212.41192626953125,646.1961669921875,211.41192626953125,645.9561767578125,211.01190185546875C645.7161865234375,210.6119384765625,644.876220703125,210.41192626953125,643.4361572265625,210.41192626953125L643.4361572265625,210.41192626953125C637.0361328125,210.5718994140625,630.63623046875,210.8118896484375,624.2362060546875,211.13189697265625C617.836181640625,211.451904296875,611.59619140625,212.0919189453125,605.5162353515625,213.0518798828125L605.5162353515625,213.0518798828125C604.396240234375,213.2119140625,603.2362060546875,213.3319091796875,602.0361328125,213.41192626953125C600.836181640625,213.49188232421875,599.59619140625,213.451904296875,598.316162109375,213.29193115234375L598.316162109375,213.29193115234375C594.796142578125,212.49188232421875,592.396240234375,210.3319091796875,591.1162109375,206.8118896484375L591.1162109375,206.8118896484375C590.15625,202.97195434570312,591.5162353515625,199.8519287109375,595.1961669921875,197.45193481445312L595.1961669921875,197.45193481445312C596.796142578125,196.17193603515625,598.796142578125,195.37191772460938,601.1961669921875,195.05191040039062L601.1961669921875,195.05191040039062C607.916259765625,193.29193115234375,614.59619140625,192.05191040039062,621.2362060546875,191.33193969726562C627.876220703125,190.6119384765625,634.63623046875,190.17193603515625,641.5162353515625,190.01193237304688L641.5162353515625,190.01193237304688C647.276123046875,190.01193237304688,653.0361328125,190.17193603515625,658.796142578125,190.49191284179688C664.55615234375,190.81192016601562,670.316162109375,191.21194458007812,676.076171875,191.69192504882812L676.076171875,191.69192504882812C683.1162109375,192.33193969726562,690.1162109375,193.13192749023438,697.076171875,194.09194946289062C704.0361328125,195.05191040039062,710.876220703125,196.65194702148438,717.59619140625,198.89193725585938L717.59619140625,198.89193725585938C718.7161865234375,199.21194458007812,719.796142578125,199.57192993164062,720.836181640625,199.97195434570312C721.876220703125,200.37191772460938,722.9561767578125,200.89193725585938,724.076171875,201.53195190429688L724.076171875,201.53195190429688C728.396240234375,203.29193115234375,730.15625,206.17193603515625,729.356201171875,210.17193603515625L729.356201171875,210.17193603515625C728.55615234375,214.01190185546875,725.916259765625,215.931884765625,721.4361572265625,215.931884765625L721.4361572265625,215.931884765625C716.796142578125,215.931884765625,712.1961669921875,215.8519287109375,707.63623046875,215.69189453125C703.076171875,215.53192138671875,698.4761962890625,215.13189697265625,693.836181640625,214.49188232421875L693.836181640625,214.49188232421875C689.6761474609375,213.8519287109375,685.4361572265625,213.3319091796875,681.1162109375,212.931884765625C676.796142578125,212.53192138671875,672.4761962890625,212.0919189453125,668.15625,211.6119384765625L668.15625,211.6119384765625C666.7161865234375,211.29193115234375,665.876220703125,211.3319091796875,665.63623046875,211.73193359375C665.396240234375,212.13189697265625,665.276123046875,213.0518798828125,665.276123046875,214.49188232421875L665.276123046875,214.49188232421875C664.9561767578125,217.69189453125,664.876220703125,220.971923828125,665.0361328125,224.3319091796875C665.1961669921875,227.69189453125,665.276123046875,230.971923828125,665.276123046875,234.17193603515625L665.276123046875,234.17193603515625Z" style="fill: rgb(0, 0, 0); fill-opacity: 1;"/></g></g></g><g id="shape-c2909b90-ee99-80a4-8007-845bed85df81" rx="0" ry="0"><g id="shape-4e290ee5-64c5-80e0-8007-83e6d72d27cd"><g class="fills" id="fills-4e290ee5-64c5-80e0-8007-83e6d72d27cd"><rect rx="0" ry="0" x="100.00000000000006" y="525" transform="matrix(1.000000, 0.000000, 0.000000, 1.000000, 0.000000, 0.000000)" width="375" height="375" style="fill: rgb(167, 244, 50); fill-opacity: 1;"/></g></g><g id="shape-c2909b90-ee99-80a4-8007-845c581a3172"><g class="fills" id="fills-c2909b90-ee99-80a4-8007-845c581a3172"><path d="M223.61419677734375,658.0982666015625L223.61419677734375,658.0982666015625C223.29425048828125,669.458251953125,222.9742431640625,680.3382568359375,222.65423583984375,690.73828125C222.334228515625,701.1382446289062,222.25421142578125,711.3782348632812,222.41424560546875,721.458251953125L222.41424560546875,721.458251953125C222.7342529296875,728.658203125,222.9342041015625,735.8582763671875,223.01422119140625,743.0582275390625C223.09423828125,750.25830078125,223.29425048828125,757.3782958984375,223.61419677734375,764.418212890625L223.61419677734375,764.418212890625C223.77423095703125,768.8983154296875,223.89422607421875,773.3782958984375,223.9742431640625,777.8582763671875C224.05419921875,782.3382568359375,224.41424560546875,786.73828125,225.05419921875,791.0582275390625L225.05419921875,791.0582275390625C225.37420654296875,793.7783203125,225.854248046875,796.418212890625,226.49420166015625,798.978271484375L226.49420166015625,798.978271484375C226.9742431640625,800.73828125,227.09423828125,802.0982666015625,226.854248046875,803.0582275390625C226.61419677734375,804.018310546875,225.77423095703125,804.8983154296875,224.334228515625,805.6982421875L224.334228515625,805.6982421875C222.89422607421875,806.658203125,221.37420654296875,806.978271484375,219.77423095703125,806.658203125C218.17425537109375,806.3382568359375,216.89422607421875,805.458251953125,215.9342041015625,804.018310546875L215.9342041015625,804.018310546875C214.814208984375,802.25830078125,213.854248046875,800.3382568359375,213.05426025390625,798.25830078125C212.25421142578125,796.17822265625,211.6942138671875,794.0982666015625,211.37420654296875,792.018310546875L211.37420654296875,792.018310546875C210.25421142578125,785.458251953125,209.334228515625,778.8182373046875,208.61419677734375,772.0982666015625C207.89422607421875,765.3782958984375,207.2142333984375,758.73828125,206.57421875,752.17822265625L206.57421875,752.17822265625C206.09423828125,743.5382080078125,205.57421875,734.938232421875,205.01422119140625,726.3782958984375C204.4542236328125,717.8182373046875,203.9342041015625,709.21826171875,203.4542236328125,700.5782470703125L203.4542236328125,700.5782470703125C202.814208984375,691.6182861328125,202.334228515625,682.6982421875,202.01422119140625,673.8182373046875C201.6942138671875,664.938232421875,202.17425537109375,656.0182495117188,203.4542236328125,647.0582885742188L203.4542236328125,647.0582885742188C203.77423095703125,644.6582641601562,204.25421142578125,642.2982788085938,204.89422607421875,639.978271484375C205.53424072265625,637.6582641601562,206.09423828125,635.2982788085938,206.57421875,632.8982543945312L206.57421875,632.8982543945312C207.05426025390625,631.1382446289062,207.9342041015625,629.3782348632812,209.2142333984375,627.6182861328125L209.2142333984375,627.6182861328125C210.01422119140625,626.498291015625,210.89422607421875,625.6182861328125,211.854248046875,624.978271484375C212.814208984375,624.3382568359375,214.09423828125,624.0182495117188,215.6942138671875,624.0182495117188L215.6942138671875,624.0182495117188C217.13421630859375,624.1782836914062,218.29425048828125,624.73828125,219.17425537109375,625.6982421875C220.05419921875,626.6582641601562,220.65423583984375,627.7782592773438,220.9742431640625,629.0582885742188L220.9742431640625,629.0582885742188C221.9342041015625,631.6182861328125,222.53424072265625,634.1382446289062,222.77423095703125,636.6182861328125C223.01422119140625,639.0982666015625,223.13421630859375,641.6982421875,223.13421630859375,644.4182739257812L223.13421630859375,644.4182739257812C223.4542236328125,646.978271484375,223.6942138671875,649.498291015625,223.854248046875,651.978271484375C224.01422119140625,654.458251953125,223.9342041015625,656.498291015625,223.61419677734375,658.0982666015625ZM308.814208984375,661.6982421875L308.814208984375,681.1382446289062C309.4542236328125,688.3382568359375,309.89422607421875,695.5382690429688,310.13421630859375,702.73828125C310.37420654296875,709.938232421875,310.814208984375,717.1382446289062,311.4542236328125,724.3382568359375L311.4542236328125,724.3382568359375C311.77423095703125,728.978271484375,312.05426025390625,733.6182861328125,312.29425048828125,738.25830078125C312.53424072265625,742.8983154296875,312.814208984375,747.5382080078125,313.13421630859375,752.17822265625L313.13421630859375,752.17822265625C313.4542236328125,759.0582275390625,313.814208984375,765.8182373046875,314.2142333984375,772.458251953125C314.61419677734375,779.0982666015625,315.13421630859375,785.7783203125,315.77423095703125,792.498291015625L315.77423095703125,792.498291015625C315.9342041015625,793.6182861328125,316.17425537109375,794.7783203125,316.49420166015625,795.978271484375C316.814208984375,797.17822265625,317.05426025390625,798.418212890625,317.2142333984375,799.6982421875L317.2142333984375,799.6982421875C317.37420654296875,800.8182373046875,317.2142333984375,802.018310546875,316.73419189453125,803.2982177734375C316.25421142578125,804.5782470703125,315.4542236328125,805.6182861328125,314.334228515625,806.418212890625L314.334228515625,806.418212890625C311.9342041015625,808.018310546875,309.37420654296875,807.7781982421875,306.65423583984375,805.6982421875L306.65423583984375,805.6982421875C304.57421875,804.0982666015625,303.05426025390625,801.8582763671875,302.09423828125,798.978271484375L302.09423828125,798.978271484375C300.65423583984375,795.7783203125,299.53424072265625,792.3782958984375,298.73419189453125,788.7783203125C297.9342041015625,785.17822265625,297.2142333984375,781.6182861328125,296.57421875,778.0982666015625L296.57421875,778.0982666015625C294.9742431640625,768.018310546875,293.6942138671875,757.8582763671875,292.73419189453125,747.6182861328125C291.77423095703125,737.3782958984375,291.05426025390625,727.1383056640625,290.57421875,716.8982543945312L290.57421875,716.8982543945312C290.41424560546875,713.21826171875,290.17425537109375,709.4982299804688,289.854248046875,705.73828125C289.53424072265625,701.978271484375,289.29425048828125,698.3382568359375,289.13421630859375,694.8182373046875L289.13421630859375,694.8182373046875C288.65423583984375,682.3382568359375,288.41424560546875,669.8582763671875,288.41424560546875,657.3782348632812L288.41424560546875,657.3782348632812C288.41424560546875,654.6582641601562,288.49420166015625,651.978271484375,288.65423583984375,649.3382568359375C288.814208984375,646.6982421875,289.05426025390625,644.0982666015625,289.37420654296875,641.5382690429688L289.37420654296875,641.5382690429688C289.6942138671875,639.938232421875,289.73419189453125,638.938232421875,289.49420166015625,638.5382690429688C289.25421142578125,638.1382446289062,288.41424560546875,637.938232421875,286.9742431640625,637.938232421875L286.9742431640625,637.938232421875C280.57421875,638.0982666015625,274.17425537109375,638.3382568359375,267.77423095703125,638.6582641601562C261.37420654296875,638.978271484375,255.13421630859375,639.6182861328125,249.05419921875,640.5782470703125L249.05419921875,640.5782470703125C247.9342041015625,640.73828125,246.77423095703125,640.8582763671875,245.57421875,640.938232421875C244.37420654296875,641.0182495117188,243.13421630859375,640.978271484375,241.854248046875,640.8182373046875L241.854248046875,640.8182373046875C238.334228515625,640.0182495117188,235.9342041015625,637.8582763671875,234.65423583984375,634.3382568359375L234.65423583984375,634.3382568359375C233.6942138671875,630.498291015625,235.05419921875,627.3782348632812,238.7342529296875,624.978271484375L238.7342529296875,624.978271484375C240.334228515625,623.6982421875,242.334228515625,622.8982543945312,244.7342529296875,622.5782470703125L244.7342529296875,622.5782470703125C251.4542236328125,620.8182373046875,258.13421630859375,619.5782470703125,264.77423095703125,618.8582763671875C271.41424560546875,618.1382446289062,278.17425537109375,617.6982421875,285.05426025390625,617.5382690429688L285.05426025390625,617.5382690429688C290.814208984375,617.5382690429688,296.57421875,617.6982421875,302.334228515625,618.0182495117188C308.09423828125,618.3382568359375,313.854248046875,618.73828125,319.61419677734375,619.21826171875L319.61419677734375,619.21826171875C326.65423583984375,619.8582763671875,333.65423583984375,620.6582641601562,340.61419677734375,621.6182861328125C347.57421875,622.5782470703125,354.41424560546875,624.1782836914062,361.13421630859375,626.4182739257812L361.13421630859375,626.4182739257812C362.25421142578125,626.73828125,363.334228515625,627.0982666015625,364.37420654296875,627.498291015625C365.41424560546875,627.8982543945312,366.49420166015625,628.4182739257812,367.61419677734375,629.0582885742188L367.61419677734375,629.0582885742188C371.9342041015625,630.8182373046875,373.6942138671875,633.6982421875,372.89422607421875,637.6982421875L372.89422607421875,637.6982421875C372.09423828125,641.5382690429688,369.4542236328125,643.458251953125,364.9742431640625,643.458251953125L364.9742431640625,643.458251953125C360.334228515625,643.458251953125,355.73419189453125,643.3782348632812,351.17425537109375,643.21826171875C346.61419677734375,643.0582885742188,342.01422119140625,642.6582641601562,337.37420654296875,642.0182495117188L337.37420654296875,642.0182495117188C333.2142333984375,641.3782348632812,328.9742431640625,640.8582763671875,324.65423583984375,640.458251953125C320.334228515625,640.0582885742188,316.01422119140625,639.6182861328125,311.6942138671875,639.1382446289062L311.6942138671875,639.1382446289062C310.25421142578125,638.8182373046875,309.41424560546875,638.8582763671875,309.17425537109375,639.2582397460938C308.9342041015625,639.6582641601562,308.814208984375,640.5782470703125,308.814208984375,642.0182495117188L308.814208984375,642.0182495117188C308.49420166015625,645.21826171875,308.41424560546875,648.498291015625,308.57421875,651.8582763671875C308.73419189453125,655.21826171875,308.814208984375,658.498291015625,308.814208984375,661.6982421875L308.814208984375,661.6982421875Z" style="fill: rgb(0, 0, 0); fill-opacity: 1;"/></g></g></g><g id="shape-c2909b90-ee99-80a4-8007-845bff44b055" rx="0" ry="0"><g id="shape-4e290ee5-64c5-80e0-8007-83e75b2f4159"><g class="fills" id="fills-4e290ee5-64c5-80e0-8007-83e75b2f4159"><rect rx="0" ry="0" x="525" y="525" transform="matrix(1.000000, 0.000000, 0.000000, 1.000000, 0.000000, 0.000000)" width="374.9999999999998" height="375" style="fill: rgb(135, 206, 235); fill-opacity: 1;"/></g></g><g id="shape-c2909b90-ee99-80a4-8007-845c18d3ab36"><g class="fills" id="fills-c2909b90-ee99-80a4-8007-845c18d3ab36"><path d="M607.4520263671875,722.8919677734375L607.4520263671875,719.0518798828125C607.4520263671875,712.1719360351562,607.85205078125,705.3319091796875,608.6519775390625,698.5319213867188C609.4520263671875,691.73193359375,610.4920654296875,684.971923828125,611.77197265625,678.251953125L611.77197265625,678.251953125C613.052001953125,672.0119018554688,614.612060546875,665.8519287109375,616.4520263671875,659.7719116210938C618.2919921875,653.69189453125,620.572021484375,647.7719116210938,623.2919921875,642.0119018554688L623.2919921875,642.0119018554688C624.572021484375,639.2919311523438,625.9720458984375,636.7719116210938,627.4920654296875,634.451904296875C629.0120849609375,632.1318969726562,630.81201171875,629.9319458007812,632.89208984375,627.8519287109375L632.89208984375,627.8519287109375C634.33203125,626.4119262695312,636.0120849609375,625.1318969726562,637.9320068359375,624.0119018554688L637.9320068359375,624.0119018554688C639.6920166015625,623.3719482421875,641.1719970703125,622.5319213867188,642.3720703125,621.491943359375C643.572021484375,620.451904296875,644.7320556640625,619.3719482421875,645.85205078125,618.251953125L645.85205078125,618.251953125C649.531982421875,615.0519409179688,653.3720703125,614.0919189453125,657.3720703125,615.3719482421875L657.3720703125,615.3719482421875C666.6519775390625,617.1318969726562,673.85205078125,621.69189453125,678.9720458984375,629.0519409179688L678.9720458984375,629.0519409179688C681.531982421875,632.5718994140625,683.77197265625,636.2919311523438,685.6920166015625,640.2119140625C687.612060546875,644.1318969726562,689.3720703125,648.0919189453125,690.9720458984375,652.0919189453125L690.9720458984375,652.0919189453125C695.77197265625,664.4119262695312,699.33203125,677.0119018554688,701.6519775390625,689.8919067382812C703.9720458984375,702.7719116210938,704.7320556640625,715.8519287109375,703.9320068359375,729.1319580078125L703.9320068359375,729.1319580078125C703.2919921875,736.491943359375,702.33203125,743.8118896484375,701.052001953125,751.0919189453125C699.77197265625,758.3719482421875,697.85205078125,765.451904296875,695.2919921875,772.3319091796875L695.2919921875,772.3319091796875C693.531982421875,777.77197265625,691.1719970703125,782.77197265625,688.2120361328125,787.3319091796875C685.2520751953125,791.8919677734375,681.612060546875,796.011962890625,677.2919921875,799.69189453125L677.2919921875,799.69189453125C672.0120849609375,804.011962890625,666.4520263671875,807.0919189453125,660.612060546875,808.931884765625C654.77197265625,810.77197265625,648.572021484375,810.5718994140625,642.0120849609375,808.3319091796875L642.0120849609375,808.3319091796875C638.4920654296875,807.2119140625,635.33203125,805.451904296875,632.531982421875,803.0518798828125C629.7320556640625,800.6519775390625,627.2120361328125,797.931884765625,624.9720458984375,794.8919677734375L624.9720458984375,794.8919677734375C621.9320068359375,790.73193359375,619.4920654296875,786.3719482421875,617.6519775390625,781.8118896484375C615.81201171875,777.251953125,614.1719970703125,772.491943359375,612.7320556640625,767.531982421875L612.7320556640625,767.531982421875C610.81201171875,760.3319091796875,609.4520263671875,752.971923828125,608.6519775390625,745.451904296875C607.85205078125,737.931884765625,607.4520263671875,730.4119873046875,607.4520263671875,722.8919677734375L607.4520263671875,722.8919677734375ZM650.1719970703125,639.1318969726562L650.1719970703125,639.1318969726562C649.3720703125,639.451904296875,648.81201171875,639.9319458007812,648.4920654296875,640.5718994140625C648.1719970703125,641.2119140625,647.9320068359375,641.7719116210938,647.77197265625,642.251953125L647.77197265625,642.251953125C646.81201171875,644.3319091796875,645.9320068359375,646.2919311523438,645.132080078125,648.1318969726562C644.33203125,649.971923828125,643.531982421875,651.8519287109375,642.7320556640625,653.7719116210938L642.7320556640625,653.7719116210938C638.572021484375,663.69189453125,635.4920654296875,673.8519287109375,633.4920654296875,684.251953125C631.4920654296875,694.6519165039062,630.33203125,705.1319580078125,630.0120849609375,715.6919555664062L630.0120849609375,715.6919555664062C629.85205078125,720.6519775390625,629.89208984375,725.531982421875,630.132080078125,730.3319091796875C630.3720703125,735.1319580078125,630.81201171875,740.0919189453125,631.4520263671875,745.2119140625L631.4520263671875,745.2119140625C632.092041015625,749.8519287109375,632.9720458984375,754.491943359375,634.092041015625,759.1319580078125C635.2120361328125,763.77197265625,636.6519775390625,768.251953125,638.4119873046875,772.5718994140625L638.4119873046875,772.5718994140625C639.2120361328125,774.3319091796875,640.052001953125,776.0919189453125,640.9320068359375,777.8519287109375C641.81201171875,779.6119384765625,642.89208984375,781.2119140625,644.1719970703125,782.6519775390625L644.1719970703125,782.6519775390625C649.4520263671875,789.2119140625,655.531982421875,790.4119873046875,662.4119873046875,786.251953125L662.4119873046875,786.251953125C665.612060546875,784.491943359375,668.2919921875,782.251953125,670.4520263671875,779.531982421875C672.612060546875,776.8118896484375,674.4119873046875,773.931884765625,675.85205078125,770.8919677734375L675.85205078125,770.8919677734375C677.2919921875,767.3719482421875,678.572021484375,763.8919677734375,679.6920166015625,760.451904296875C680.81201171875,757.011962890625,681.6920166015625,753.531982421875,682.33203125,750.011962890625L682.33203125,750.011962890625C683.612060546875,743.2919921875,684.2520751953125,736.6119384765625,684.2520751953125,729.971923828125C684.2520751953125,723.3319091796875,683.85205078125,716.5719604492188,683.052001953125,709.6919555664062L683.052001953125,709.6919555664062C682.4119873046875,704.73193359375,681.4920654296875,699.8919067382812,680.2919921875,695.1719360351562C679.092041015625,690.4519653320312,677.85205078125,685.7719116210938,676.572021484375,681.1319580078125L676.572021484375,681.1319580078125C675.132080078125,676.0119018554688,673.572021484375,671.0519409179688,671.89208984375,666.251953125C670.2120361328125,661.451904296875,668.2520751953125,656.73193359375,666.0120849609375,652.0919189453125L666.0120849609375,652.0919189453125C665.2120361328125,649.8519287109375,664.2120361328125,647.69189453125,663.0120849609375,645.6119384765625C661.81201171875,643.5319213867188,660.33203125,641.69189453125,658.572021484375,640.0919189453125L658.572021484375,640.0919189453125C657.612060546875,639.1318969726562,656.89208984375,638.8919067382812,656.4119873046875,639.3719482421875L656.4119873046875,639.3719482421875C655.132080078125,640.6519165039062,654.0120849609375,641.0519409179688,653.052001953125,640.5718994140625C652.092041015625,640.0919189453125,651.132080078125,639.6119384765625,650.1719970703125,639.1318969726562ZM744.2520751953125,703.9319458007812L744.2520751953125,703.9319458007812C743.9320068359375,706.491943359375,743.81201171875,708.9319458007812,743.89208984375,711.251953125C743.9720458984375,713.5719604492188,744.011962890625,716.011962890625,744.011962890625,718.5718994140625L744.011962890625,718.5718994140625C743.85205078125,724.011962890625,743.77197265625,729.3719482421875,743.77197265625,734.6519775390625C743.77197265625,739.931884765625,743.612060546875,745.1319580078125,743.2919921875,750.251953125L743.2919921875,750.251953125C742.9720458984375,757.77197265625,742.7320556640625,765.251953125,742.572021484375,772.69189453125C742.4119873046875,780.1319580078125,742.4920654296875,787.531982421875,742.81201171875,794.8919677734375L742.81201171875,794.8919677734375L742.81201171875,796.0919189453125C742.81201171875,799.451904296875,742.011962890625,801.2119140625,740.4119873046875,801.3719482421875L740.4119873046875,801.3719482421875C738.011962890625,801.8519287109375,736.1719970703125,800.4119873046875,734.89208984375,797.0518798828125L734.89208984375,797.0518798828125C734.2520751953125,793.8519287109375,733.6920166015625,790.5718994140625,733.2120361328125,787.2119140625C732.7320556640625,783.8519287109375,732.2520751953125,780.5718994140625,731.77197265625,777.3719482421875L731.77197265625,777.3719482421875C731.132080078125,773.8519287109375,730.572021484375,770.4119873046875,730.092041015625,767.0518798828125C729.612060546875,763.69189453125,729.052001953125,760.251953125,728.4119873046875,756.73193359375L728.4119873046875,756.73193359375C727.9320068359375,753.531982421875,727.531982421875,750.3319091796875,727.2120361328125,747.1319580078125C726.89208984375,743.931884765625,726.572021484375,740.8118896484375,726.2520751953125,737.77197265625L726.2520751953125,737.77197265625C725.2919921875,727.0518798828125,724.572021484375,716.8119506835938,724.092041015625,707.0519409179688L724.092041015625,707.0519409179688C723.4520263671875,697.6119384765625,723.0120849609375,688.1719360351562,722.77197265625,678.73193359375C722.531982421875,669.2919311523438,722.4119873046875,659.7719116210938,722.4119873046875,650.1719360351562L722.4119873046875,650.1719360351562C722.4119873046875,647.1318969726562,722.612060546875,644.0919189453125,723.0120849609375,641.0519409179688C723.4119873046875,638.0119018554688,724.0120849609375,634.971923828125,724.81201171875,631.9319458007812L724.81201171875,631.9319458007812C725.132080078125,631.1318969726562,725.3720703125,630.4119262695312,725.531982421875,629.7719116210938C725.6920166015625,629.1318969726562,726.092041015625,628.491943359375,726.7320556640625,627.8519287109375L726.7320556640625,627.8519287109375C728.1719970703125,625.2919311523438,730.2520751953125,623.8519287109375,732.9720458984375,623.5319213867188C735.6920166015625,623.2119140625,738.011962890625,624.1719360351562,739.9320068359375,626.4119262695312L739.9320068359375,626.4119262695312C741.052001953125,627.5319213867188,742.092041015625,628.7719116210938,743.052001953125,630.1318969726562C744.011962890625,631.491943359375,744.81201171875,633.0519409179688,745.4520263671875,634.8119506835938L745.4520263671875,634.8119506835938C748.4920654296875,642.1719360351562,751.2520751953125,649.5718994140625,753.7320556640625,657.0119018554688C756.2120361328125,664.451904296875,758.572021484375,671.9319458007812,760.81201171875,679.451904296875L760.81201171875,679.451904296875C763.3720703125,687.7719116210938,766.1719970703125,695.9319458007812,769.2120361328125,703.9319458007812C772.2520751953125,711.9319458007812,775.4520263671875,719.8519287109375,778.81201171875,727.69189453125L778.81201171875,727.69189453125C781.052001953125,733.1319580078125,783.4520263671875,738.4119873046875,786.011962890625,743.531982421875C788.572021484375,748.6519775390625,791.3720703125,753.77197265625,794.4119873046875,758.8919677734375L794.4119873046875,758.8919677734375C794.89208984375,759.531982421875,795.33203125,760.2919921875,795.7320556640625,761.1719970703125C796.132080078125,762.0518798828125,796.89208984375,762.73193359375,798.011962890625,763.2119140625L798.011962890625,763.2119140625C798.1719970703125,760.1719970703125,798.33203125,757.2119140625,798.4920654296875,754.3319091796875C798.652099609375,751.451904296875,798.7320556640625,748.6519775390625,798.7320556640625,745.931884765625L798.7320556640625,745.931884765625C798.7320556640625,741.2919921875,798.7320556640625,736.6119384765625,798.7320556640625,731.8919677734375C798.7320556640625,727.171875,798.572021484375,722.491943359375,798.2520751953125,717.8519287109375L798.2520751953125,717.8519287109375C797.9320068359375,709.3719482421875,797.81201171875,700.8919067382812,797.89208984375,692.4119262695312C797.9720458984375,683.9319458007812,798.011962890625,675.5319213867188,798.011962890625,667.2119140625L798.011962890625,667.2119140625C798.011962890625,662.251953125,797.9720458984375,657.4119262695312,797.89208984375,652.69189453125C797.81201171875,647.971923828125,797.612060546875,643.2919311523438,797.2919921875,638.6519165039062L797.2919921875,638.6519165039062C797.2919921875,637.5319213867188,797.2120361328125,636.5718994140625,797.052001953125,635.7719116210938C796.89208984375,634.971923828125,796.2520751953125,634.251953125,795.132080078125,633.6119384765625L795.132080078125,633.6119384765625C794.011962890625,633.1318969726562,793.572021484375,632.3319091796875,793.81201171875,631.2119140625C794.052001953125,630.0919189453125,794.572021484375,629.2119140625,795.3720703125,628.5718994140625L795.3720703125,628.5718994140625C797.132080078125,627.7719116210938,798.9320068359375,627.491943359375,800.77197265625,627.73193359375C802.612060546875,627.971923828125,803.85205078125,629.1318969726562,804.4920654296875,631.2119140625L804.4920654296875,631.2119140625C805.2919921875,632.6519165039062,805.89208984375,634.1318969726562,806.2919921875,635.6519165039062C806.6920166015625,637.1719360351562,807.052001953125,638.6519165039062,807.3720703125,640.0919189453125L807.3720703125,640.0919189453125C809.2919921875,648.5718994140625,810.572021484375,657.1318969726562,811.2120361328125,665.7719116210938C811.85205078125,674.4119262695312,812.4920654296875,683.0519409179688,813.132080078125,691.6919555664062L813.132080078125,691.6919555664062C813.4520263671875,700.491943359375,813.9720458984375,709.2119140625,814.6920166015625,717.8519287109375C815.4119873046875,726.491943359375,816.092041015625,735.2919921875,816.7320556640625,744.251953125L816.7320556640625,744.251953125C816.89208984375,749.3719482421875,817.092041015625,754.451904296875,817.33203125,759.491943359375C817.572021484375,764.531982421875,817.612060546875,769.6119384765625,817.4520263671875,774.73193359375L817.4520263671875,774.73193359375C817.2919921875,777.2919921875,817.092041015625,779.77197265625,816.85205078125,782.1719970703125C816.612060546875,784.5718994140625,816.092041015625,786.8919677734375,815.2919921875,789.1319580078125L815.2919921875,789.1319580078125C814.1719970703125,793.2919921875,811.77197265625,796.0919189453125,808.092041015625,797.531982421875C804.4119873046875,798.971923828125,800.652099609375,798.73193359375,796.81201171875,796.8118896484375L796.81201171875,796.8118896484375C795.2120361328125,795.8519287109375,793.77197265625,794.69189453125,792.4920654296875,793.3319091796875C791.2120361328125,791.971923828125,789.9320068359375,790.491943359375,788.652099609375,788.8919677734375L788.652099609375,788.8919677734375C785.132080078125,784.8919677734375,781.85205078125,780.6519775390625,778.81201171875,776.1719970703125C775.77197265625,771.69189453125,772.89208984375,767.1319580078125,770.1719970703125,762.491943359375L770.1719970703125,762.491943359375C766.81201171875,755.931884765625,763.612060546875,749.251953125,760.572021484375,742.451904296875C757.531982421875,735.6519775390625,754.652099609375,728.8118896484375,751.9320068359375,721.931884765625L751.9320068359375,721.931884765625C750.81201171875,719.0518798828125,749.77197265625,716.2119140625,748.81201171875,713.4119262695312C747.85205078125,710.6119384765625,746.81201171875,707.7719116210938,745.6920166015625,704.8919067382812L745.6920166015625,704.8919067382812C745.531982421875,704.73193359375,745.4119873046875,704.5319213867188,745.33203125,704.2919311523438C745.2520751953125,704.0519409179688,744.89208984375,703.9319458007812,744.2520751953125,703.9319458007812Z" style="fill: rgb(0, 0, 0); fill-opacity: 1;"/></g></g></g></g></g></g></g></g></g></svg>
